<svg version="1.1" id="Layer_1" xmlns="http://www.w3.org/2000/svg" xmlns:xlink="http://www.w3.org/1999/xlink" x="0px" y="0px" viewBox="0 0 500 500" style="width: 137px;" xml:space="preserve" data-imageid="reading-a-book-6" imageName="Reading a Book" class="illustrations_image">
<style type="text/css">
	.st0_reading-a-book-6{fill:#F56132;}
	.st1_reading-a-book-6{fill:#093F68;}
	.st2_reading-a-book-6{fill:#725858;}
	.st3_reading-a-book-6{fill:#FFC9B0;}
	.st4_reading-a-book-6{fill:#FFFFFF;}
	.st5_reading-a-book-6{fill:#68E1FD;}
</style>
<g id="character_reading-a-book-6">
	<path class="st0_reading-a-book-6" d="M232.4,259.2h37.1c33.5,0,60.7,27.2,60.7,60.7l0,0V392l0,0H171.7l0,0v-72.1&#10;&#9;&#9;C171.7,286.4,198.9,259.2,232.4,259.2z"/>
	<path class="st1_reading-a-book-6" d="M330.2,393.9H171.7c-1,0-1.9-0.8-1.9-1.9v-73.9c0-33.5,27.2-60.7,60.8-60.8h40.7c33.5,0,60.7,27.2,60.8,60.8&#10;&#9;&#9;V392C332.1,393,331.3,393.9,330.2,393.9C330.2,393.9,330.2,393.9,330.2,393.9z M173.5,390.1h154.8v-72c0-31.5-25.5-57-57-57h-40.8&#10;&#9;&#9;c-31.5,0-57,25.5-57,57L173.5,390.1z"/>
	<path class="st1_reading-a-book-6" d="M290.6,356.4c-1,0-1.9-0.8-1.9-1.9v-78.9c0.1-1,1-1.8,2-1.7c0.9,0.1,1.7,0.8,1.7,1.7v78.9&#10;&#9;&#9;C292.5,355.6,291.7,356.4,290.6,356.4z"/>
	<path class="st1_reading-a-book-6" d="M211.3,356.4c-1,0-1.9-0.8-1.9-1.9v-78.9c0.1-1,1-1.8,2-1.7c0.9,0.1,1.7,0.8,1.7,1.7v78.9&#10;&#9;&#9;C213.1,355.6,212.3,356.4,211.3,356.4z"/>
	<path class="st2_reading-a-book-6" d="M169.7,153c0-47.8,35.7-72.6,79.7-72.6s79.7,24.8,79.7,72.6s-35.7,86.5-79.7,86.5S169.7,200.7,169.7,153z"/>
	<path class="st1_reading-a-book-6" d="M249.4,241.4c-45,0-81.6-39.7-81.6-88.4c0-45.3,32-74.5,81.6-74.5S331,107.7,331,153&#10;&#9;&#9;C331,201.7,294.4,241.4,249.4,241.4z M249.4,82.2c-47.3,0-77.8,27.8-77.8,70.8c0,46.7,34.9,84.7,77.8,84.7s77.8-38,77.8-84.7&#10;&#9;&#9;C327.2,110,296.7,82.2,249.4,82.2z"/>
	<path class="st3_reading-a-book-6" d="M238,247.1h22.8l0,0v17.6c0,2.8-2.3,5.2-5.2,5.2l0,0h-12.4c-2.8,0-5.2-2.3-5.2-5.2l0,0L238,247.1L238,247.1z"/>
	<path class="st1_reading-a-book-6" d="M251.1,271.8h-3.4c-6.4,0-11.5-5.2-11.5-11.5v-13.1c0-1,0.8-1.9,1.9-1.9h22.7c1,0,1.9,0.8,1.9,1.9c0,0,0,0,0,0&#10;&#9;&#9;v13.1C262.7,266.6,257.5,271.8,251.1,271.8z M239.9,249v11.2c0,4.3,3.5,7.8,7.8,7.8h3.4c4.3,0,7.8-3.5,7.8-7.8V249H239.9z"/>
	<ellipse class="st3_reading-a-book-6" cx="184.4" cy="194.9" rx="22.1" ry="19.1"/>
	<path class="st1_reading-a-book-6" d="M184.4,215.8c-13.2,0-24-9.4-24-20.9s10.8-20.9,24-20.9s24,9.4,24,20.9S197.6,215.8,184.4,215.8z M184.4,177.7&#10;&#9;&#9;c-11.1,0-20.2,7.7-20.2,17.2s9.1,17.2,20.2,17.2s20.2-7.7,20.2-17.2S195.6,177.7,184.4,177.7z"/>
	<ellipse class="st3_reading-a-book-6" cx="313.3" cy="194.9" rx="22.1" ry="19.1"/>
	<path class="st1_reading-a-book-6" d="M313.3,215.8c-13.2,0-24-9.4-24-20.9s10.7-20.9,24-20.9s24,9.4,24,20.9S326.5,215.8,313.3,215.8z M313.3,177.7&#10;&#9;&#9;c-11.1,0-20.2,7.7-20.2,17.2s9.1,17.2,20.2,17.2s20.2-7.7,20.2-17.2S324.4,177.7,313.3,177.7z"/>
	<path class="st3_reading-a-book-6" d="M290.3,141.1c-9.4,1.3-18.9,2.3-29.1,0.6c5.5-6.2,11.5-13.3,10.8-21.6c-13.9,18-36,27.6-58.7,25.5l19.6-26.7&#10;&#9;&#9;c-14.8,5.7-30.1,11.9-40.7,24.2c-11.5,13.3-9.5,30.3-9.5,47.2c0,36.8,29.9,66.7,66.7,66.6c36.8,0,66.6-29.8,66.6-66.6v-51.8&#10;&#9;&#9;C307.2,138.4,298.8,139.9,290.3,141.1z"/>
	<path class="st1_reading-a-book-6" d="M249.4,258.9c-37.8,0-68.5-30.7-68.6-68.5c0-2.2,0-4.3-0.1-6.5c-0.2-14.6-0.5-29.8,10-41.9&#10;&#9;&#9;s25.7-18.7,41.5-24.7c1-0.4,2.1,0.1,2.4,1.1c0.2,0.6,0.1,1.2-0.2,1.7l-17.6,24c20.9,0.8,40.9-8.5,53.7-25c0.6-0.8,1.8-1,2.6-0.4&#10;&#9;&#9;c0.4,0.3,0.7,0.8,0.7,1.4c0.6,7.8-3.8,14.3-9,20.4c8.8,1,17.2,0,25.1-1.1l0,0l3.7-0.5c7.4-1.2,14.8-1.9,22.3-2.1&#10;&#9;&#9;c1,0,1.9,0.8,1.9,1.9v51.8C317.9,228.2,287.2,258.8,249.4,258.9z M227.7,123c-13.5,5.4-25.3,11.2-34,21.4&#10;&#9;&#9;c-9.6,11-9.3,24.8-9.1,39.4c0,2.2,0.1,4.4,0.1,6.5c-0.4,35.8,28.2,65.2,64,65.6c35.8,0.4,65.2-28.2,65.6-64c0-0.5,0-1.1,0-1.6&#10;&#9;&#9;v-49.9c-6.7,0.3-13.3,0.9-19.9,2l-3.7,0.5l0,0c-9.2,1.3-19,2.4-29.6,0.6c-1-0.2-1.7-1.1-1.5-2.2c0.1-0.3,0.2-0.7,0.4-0.9&#10;&#9;&#9;c4-4.5,8-9.2,9.6-14.3c-14.1,15.2-35.6,23.5-56.3,21.4c-0.7-0.1-1.3-0.5-1.5-1.1c-0.3-0.6-0.2-1.3,0.2-1.9L227.7,123z M290.3,141.1&#10;&#9;&#9;L290.3,141.1z"/>
	<circle class="st1_reading-a-book-6" cx="218.6" cy="180.6" r="6.2"/>
	<circle class="st1_reading-a-book-6" cx="282.2" cy="180.6" r="6.2"/>
	<path class="st1_reading-a-book-6" d="M249.1,203.2c-2,0-4-0.2-6-0.5c-1-0.2-1.7-1.2-1.5-2.2s1.2-1.7,2.2-1.5c0.1,0,5.4,0.9,9.2,0.1&#10;&#9;&#9;c0.4-1.7-1.9-8.4-5.2-14.7c-0.4-0.9,0-2.1,1-2.5c0.9-0.4,1.9-0.1,2.4,0.7c1.7,3.2,7,14.1,5.2,18.1c-0.4,0.9-1.2,1.6-2.2,1.9&#10;&#9;&#9;C252.5,203.1,250.8,203.3,249.1,203.2z"/>
	<path class="st1_reading-a-book-6" d="M231.2,162.4L231.2,162.4l-29.4-0.1c-1.7,0-3-1.3-3-3s1.3-3,3-3l0,0l29.4,0.1c1.6,0.2,2.8,1.7,2.6,3.4&#10;&#9;&#9;C233.6,161.2,232.5,162.2,231.2,162.4L231.2,162.4z"/>
	<path class="st1_reading-a-book-6" d="M273.1,163.2c-1.7,0-3-1.3-3.1-2.9c0-1.7,1.3-3,2.9-3.1l29.4-1.5c1.6-0.3,3.2,0.8,3.5,2.4&#10;&#9;&#9;c0.3,1.6-0.8,3.2-2.4,3.5c-0.3,0-0.5,0.1-0.8,0l-29.4,1.5L273.1,163.2z"/>
	<path class="st1_reading-a-book-6" d="M253.6,229c-13.9,0-28.9-7.6-29.8-8.1c-0.9-0.5-1.2-1.7-0.6-2.6c0.5-0.8,1.5-1.1,2.4-0.7&#10;&#9;&#9;c0.3,0.1,28.8,14.7,41.6,3.4c0.8-0.7,2-0.6,2.6,0.2c0.7,0.8,0.6,2-0.2,2.6C265.2,227.6,259.5,229,253.6,229z"/>
</g>
<g id="book_reading-a-book-6">
	<polygon class="st4_reading-a-book-6" points="156.8,289.6 168,282.3 249.5,306.1 249.5,373.6 &#9;"/>
	<path class="st1_reading-a-book-6" d="M249.5,375.5c-0.5,0-0.9-0.2-1.2-0.5l-92.7-84c-0.8-0.7-0.9-1.9-0.2-2.7c0.1-0.1,0.3-0.3,0.4-0.3l11.2-7.2&#10;&#9;&#9;c0.5-0.3,1-0.4,1.6-0.2l81.4,23.8c0.8,0.2,1.3,1,1.4,1.8v67.5c0,0.7-0.4,1.4-1.1,1.7C250,375.4,249.8,375.5,249.5,375.5z&#10;&#9;&#9; M159.9,289.9l87.7,79.5v-61.9l-79.4-23.1L159.9,289.9z"/>
	<polygon class="st4_reading-a-book-6" points="342.2,289.6 331.7,282.3 250.2,306.1 250.2,373.6 &#9;"/>
	<path class="st1_reading-a-book-6" d="M250.2,375.5c-0.3,0-0.5-0.1-0.8-0.2c-0.7-0.3-1.1-1-1.1-1.7v-67.5c0-0.8,0.6-1.6,1.4-1.8l81.5-23.8&#10;&#9;&#9;c0.5-0.2,1.1-0.1,1.6,0.3l10.5,7.3c0.8,0.6,1.1,1.8,0.5,2.6c-0.1,0.1-0.2,0.2-0.3,0.3l-92,84C251.1,375.3,250.6,375.5,250.2,375.5z&#10;&#9;&#9; M252.1,307.5v61.9l87.1-79.5l-7.8-5.4L252.1,307.5z"/>
	<polygon class="st5_reading-a-book-6 targetColor" points="239.8,419.7 156.8,393.7 156.8,289.6 239.8,315.6 &#9;" style="fill: rgb(104, 225, 253);"/>
	<path class="st1_reading-a-book-6" d="M239.8,421.6c-0.2,0-0.4,0-0.6-0.1l-82.9-26c-0.8-0.2-1.3-1-1.3-1.8V289.6c0-1,0.8-1.9,1.9-1.9&#10;&#9;&#9;c0.2,0,0.4,0,0.6,0.1l82.9,26c0.8,0.2,1.3,1,1.3,1.8v104.1c0,0.6-0.3,1.2-0.8,1.5C240.6,421.4,240.2,421.6,239.8,421.6z&#10;&#9;&#9; M158.7,392.4l79.2,24.8V317l-79.2-24.8V392.4z"/>
	<polygon class="st5_reading-a-book-6 targetColor" points="342.2,393.7 259.3,419.7 259.3,315.6 342.2,289.6 &#9;" style="fill: rgb(104, 225, 253);"/>
	<path class="st1_reading-a-book-6" d="M259.3,421.6c-0.4,0-0.8-0.1-1.1-0.4c-0.5-0.4-0.8-0.9-0.8-1.5V315.6c0-0.8,0.5-1.5,1.3-1.8l82.9-26&#10;&#9;&#9;c1-0.3,2,0.2,2.3,1.2c0.1,0.2,0.1,0.4,0.1,0.6v104.2c0,0.8-0.5,1.5-1.3,1.8l-82.9,26C259.6,421.6,259.4,421.6,259.3,421.6z&#10;&#9;&#9; M261.1,317v100.1l79.2-24.8V292.2L261.1,317z M342.2,393.8L342.2,393.8z"/>
	<path class="st1_reading-a-book-6" d="M281.1,354.8c-0.4,0-0.8-0.1-1.1-0.4c-0.5-0.4-0.8-0.9-0.8-1.5v-24.1c0-0.8,0.5-1.5,1.3-1.8l44.3-14.3&#10;&#9;&#9;c1-0.3,2,0.2,2.4,1.2c0.1,0.2,0.1,0.4,0.1,0.6V338c0,0.8-0.5,1.5-1.3,1.8l-44.3,15C281.5,354.8,281.3,354.8,281.1,354.8z&#10;&#9;&#9; M283,330.2v20.1l40.5-13.7v-19.5L283,330.2z"/>
	<rect x="239.8" y="315.6" class="st5_reading-a-book-6 targetColor" width="19.5" height="104.1" style="fill: rgb(104, 225, 253);"/>
	<path class="st1_reading-a-book-6" d="M259.3,421.6h-19.5c-1,0-1.9-0.8-1.9-1.9c0,0,0,0,0,0V315.6c0-1,0.8-1.9,1.9-1.9h19.5c1,0,1.9,0.8,1.9,1.9&#10;&#9;&#9;v104.1C261.1,420.7,260.3,421.6,259.3,421.6z M241.6,417.8h15.7V317.5h-15.7L241.6,417.8z"/>
	<path class="st3_reading-a-book-6" d="M168.8,337.3c1.4,0.6,2.9,1.6,2.9,3.2c-0.2,1.3-1.2,2.4-2.6,2.5c-1.3,0.1-2.6-0.2-3.8-0.7&#10;&#9;&#9;c1.7,0.6,3.3,1.7,4.5,3c1.1,1.4,1.5,3.6,0.4,5c-1.3,1.6-3.8,1.4-5.8,1c1.5,0.6,2.9,1.4,4.2,2.5c1.3,1.1,1.9,2.7,1.7,4.4&#10;&#9;&#9;c-0.5,2.4-3.3,3.7-5.7,3.5c2.2,1.2,4.8,3.1,4.3,5.6s-3.4,3.3-5.7,3.2c-6.8-0.2-12.8-5.2-15.5-11.4s-2.2-13.4,0-19.8&#10;&#9;&#9;c1.3-3.6,3.2-7,7.3-6.7C159.6,333.1,164.7,335.3,168.8,337.3z"/>
	<path class="st1_reading-a-book-6" d="M163.3,372.4H163c-7.2-0.2-14-5.3-17.1-12.5c-2.6-6.2-2.6-13.7,0-21.2c0.8-2.3,3-8.4,9.2-7.9&#10;&#9;&#9;c4.8,0.4,9.8,2.5,14.5,4.8l0,0c2.6,1.2,4,2.9,3.9,4.9c0,1.5-0.9,3-2.3,3.7c1.5,1.9,2.1,5.1,0.3,7.3c-0.4,0.5-0.9,0.9-1.5,1.2&#10;&#9;&#9;c1.6,1.5,2.3,3.7,2,5.9c-0.4,1.8-1.6,3.3-3.2,4.1c1.4,1.3,2.1,3.2,1.8,5.1C170,371,166.5,372.4,163.3,372.4z M154.4,334.6&#10;&#9;&#9;c-2.2,0-3.7,1.6-5,5.5c-2.3,6.5-2.4,13.1-0.1,18.4c2.5,5.9,8.1,10,13.8,10.2c1.7,0,3.6-0.6,3.8-1.7c0.3-1.4-2-2.9-3.4-3.7&#10;&#9;&#9;c-0.9-0.5-1.2-1.6-0.7-2.5c0.3-0.6,1-1,1.7-1c1.6,0.1,3.5-0.7,3.8-2c0.1-1-0.3-2-1.1-2.7c-1.1-0.9-2.3-1.7-3.7-2.2&#10;&#9;&#9;c-0.9-0.4-1.3-1.4-1-2.2c0.3-0.9,1.2-1.5,2.1-1.3c1.4,0.2,3.3,0.5,4-0.4c0.4-0.9,0.3-1.9-0.4-2.6c-1.1-1.1-2.4-1.9-3.8-2.4&#10;&#9;&#9;c-1-0.4-1.4-1.5-1-2.4s1.5-1.4,2.4-1c0.9,0.4,2,0.6,3,0.6c0.6-0.1,1-0.5,1-0.7s-0.4-0.8-1.8-1.5c-4.4-2.1-9-4.1-13.2-4.4&#10;&#9;&#9;L154.4,334.6z"/>
	<path class="st3_reading-a-book-6" d="M333.1,337.3c-1.4,0.6-2.9,1.6-2.9,3.2c0.2,1.3,1.2,2.4,2.6,2.5c1.3,0.1,2.6-0.2,3.8-0.7&#10;&#9;&#9;c-1.7,0.6-3.3,1.7-4.5,3c-1.1,1.4-1.5,3.6-0.4,5c1.3,1.6,3.8,1.4,5.8,1c-1.5,0.6-2.9,1.4-4.2,2.5c-1.3,1.1-1.9,2.7-1.7,4.4&#10;&#9;&#9;c0.5,2.4,3.3,3.7,5.7,3.5c-2.2,1.2-4.8,3.1-4.3,5.6s3.4,3.3,5.7,3.2c6.8-0.2,12.8-5.2,15.5-11.4s2.2-13.4,0-19.8&#10;&#9;&#9;c-1.3-3.6-3.2-7-7.3-6.7C342.3,333.1,337.2,335.3,333.1,337.3z"/>
	<path class="st1_reading-a-book-6" d="M338.5,372.4c-3.1,0-6.7-1.4-7.3-4.7c-0.3-1.9,0.4-3.8,1.8-5.1c-1.6-0.8-2.8-2.3-3.2-4.1&#10;&#9;&#9;c-0.3-2.2,0.4-4.4,2-5.9c-0.6-0.3-1.1-0.7-1.5-1.2c-1.8-2.2-1.2-5.4,0.3-7.3c-1.4-0.7-2.2-2.1-2.3-3.7c0-2,1.3-3.6,3.9-4.9l0,0&#10;&#9;&#9;c4.7-2.3,9.7-4.4,14.5-4.8c6.2-0.5,8.4,5.6,9.2,7.9c2.7,7.4,2.7,15,0,21.2c-3.1,7.2-10,12.3-17.1,12.5L338.5,372.4z M337.4,359.8&#10;&#9;&#9;c1,0,1.9,0.8,1.9,1.9c0,0.7-0.4,1.3-1,1.7c-1.4,0.8-3.6,2.3-3.4,3.7c0.2,1.1,2.1,1.7,3.8,1.7c5.7-0.2,11.3-4.3,13.8-10.2&#10;&#9;&#9;c2.3-5.3,2.2-11.9-0.1-18.4c-1.5-4-3-5.6-5.4-5.4c-4.2,0.3-8.8,2.3-13.2,4.4l0,0c-1.4,0.7-1.8,1.2-1.8,1.5s0.4,0.6,1,0.7&#10;&#9;&#9;c1,0,2.1-0.2,3-0.6c1-0.4,2,0.1,2.4,1s-0.1,2-1,2.4c-1.4,0.5-2.8,1.4-3.8,2.5c-0.7,0.7-0.8,1.8-0.4,2.6c0.7,0.8,2.6,0.6,4,0.4&#10;&#9;&#9;c1-0.1,2,0.6,2.1,1.6c0.1,0.8-0.3,1.6-1.1,1.9c-1.3,0.5-2.6,1.2-3.7,2.1c-0.8,0.7-1.2,1.7-1.1,2.7c0.3,1.3,2.2,2.1,3.8,2&#10;&#9;&#9;L337.4,359.8z"/>
</g>
</svg>